<?xml version="1.0" encoding="iso-8859-1"?>
<!-- Generator: Adobe Illustrator 19.0.0, SVG Export Plug-In . SVG Version: 6.00 Build 0)  -->
<svg version="1.1" id="Layer_1" xmlns="http://www.w3.org/2000/svg" xmlns:xlink="http://www.w3.org/1999/xlink" x="0px" y="0px"
	 viewBox="0 0 512 512" style="enable-background:new 0 0 512 512;" xml:space="preserve">
<g transform="translate(0 -1)">
	<path style="fill:#25B99A;" d="M509.44,3.56c-3.413-3.413-8.533-3.413-11.947,0L378.027,123.027L332.8,168.253l-166.4,166.4
		l-44.373,44.373L2.56,498.493c-3.413,3.413-3.413,8.533,0,11.947c1.707,1.707,3.413,2.56,5.973,2.56s4.267-0.853,5.973-2.56
		l119.467-119.467l44.373-44.373l166.4-166.4l45.227-45.227L509.44,15.507C512.853,12.093,512.853,6.973,509.44,3.56"/>
	<polygon style="fill:#7383BF;" points="128,385 128,9.533 59.733,9.533 59.733,367.933 59.733,453.267 145.067,453.267 
		503.467,453.267 503.467,385 	"/>
	<g>
		<polygon style="fill:#556080;" points="128,129 384,129 384,385 452.267,385 452.267,146.067 452.267,60.733 366.933,60.733 
			128,60.733 		"/>
		<polygon style="fill:#556080;" points="8.533,129 59.733,129 59.733,60.733 8.533,60.733 		"/>
		<polygon style="fill:#556080;" points="384,504.467 452.267,504.467 452.267,453.267 384,453.267 		"/>
	</g>
	<path d="M503.467,461.8H59.733c-5.12,0-8.533-3.413-8.533-8.533V9.533C51.2,4.413,54.613,1,59.733,1H128
		c5.12,0,8.533,3.413,8.533,8.533v366.933h366.933c5.12,0,8.533,3.413,8.533,8.533v68.267C512,458.387,508.587,461.8,503.467,461.8z
		 M68.267,444.733h426.667v-51.2H128c-5.12,0-8.533-3.413-8.533-8.533V18.067h-51.2V444.733z"/>
	<path d="M452.267,393.533H384c-5.12,0-8.533-3.413-8.533-8.533V137.533H128c-5.12,0-8.533-3.413-8.533-8.533V60.733
		c0-5.12,3.413-8.533,8.533-8.533h324.267c5.12,0,8.533,3.413,8.533,8.533V385C460.8,390.12,457.387,393.533,452.267,393.533z
		 M392.533,376.467h51.2v-307.2h-307.2v51.2H384c5.12,0,8.533,3.413,8.533,8.533V376.467z"/>
	<path d="M59.733,137.533h-51.2C3.413,137.533,0,134.12,0,129V60.733c0-5.12,3.413-8.533,8.533-8.533h51.2
		c5.12,0,8.533,3.413,8.533,8.533V129C68.267,134.12,64.853,137.533,59.733,137.533z M17.067,120.467H51.2v-51.2H17.067V120.467z"/>
	<path d="M452.267,513H384c-5.12,0-8.533-3.413-8.533-8.533v-51.2c0-5.12,3.413-8.533,8.533-8.533h68.267
		c5.12,0,8.533,3.413,8.533,8.533v51.2C460.8,509.587,457.387,513,452.267,513z M392.533,495.933h51.2V461.8h-51.2V495.933z"/>
	<path d="M128,393.533c-2.56,0-4.267-0.853-5.973-2.56c-3.413-3.413-3.413-8.533,0-11.947l256-256c3.413-3.413,8.533-3.413,11.947,0
		c3.413,3.413,3.413,8.533,0,11.947l-256,256C132.267,392.68,130.56,393.533,128,393.533z"/>
	<path d="M452.267,69.267c-2.56,0-4.267-0.853-5.973-2.56c-3.413-3.413-3.413-8.533,0-11.947l51.2-51.2
		c3.413-3.413,8.533-3.413,11.947,0s3.413,8.533,0,11.947l-51.2,51.2C456.533,68.413,454.827,69.267,452.267,69.267z"/>
	<path d="M8.533,513c-2.56,0-4.267-0.853-5.973-2.56c-3.413-3.413-3.413-8.533,0-11.947l51.2-51.2c3.413-3.413,8.533-3.413,11.947,0
		c3.413,3.413,3.413,8.533,0,11.947l-51.2,51.2C12.8,512.147,11.093,513,8.533,513z"/>
</g>
<g>
</g>
<g>
</g>
<g>
</g>
<g>
</g>
<g>
</g>
<g>
</g>
<g>
</g>
<g>
</g>
<g>
</g>
<g>
</g>
<g>
</g>
<g>
</g>
<g>
</g>
<g>
</g>
<g>
</g>
</svg>
